<svg xmlns="http://www.w3.org/2000/svg" viewBox="0 0 24 24"><defs><style>.cls-1{fill:#333;}</style></defs><title>资源 11</title><g id="图层_2" data-name="图层 2"><g id="图层_1-2" data-name="图层 1"><path class="cls-1" d="M7.91,0H3A3,3,0,0,0,0,3V7.91a3,3,0,0,0,3,3h7.91V3A3,3,0,0,0,7.91,0Zm1,8.91H3a1,1,0,0,1-1-1V3A1,1,0,0,1,3,2H7.91a1,1,0,0,1,1,1Z"/><path class="cls-1" d="M21,0H16.09a3,3,0,0,0-3,3v7.91H21a3,3,0,0,0,3-3V3A3,3,0,0,0,21,0Zm1,7.91a1,1,0,0,1-1,1H15.09V3a1,1,0,0,1,1-1H21a1,1,0,0,1,1,1Z"/><path class="cls-1" d="M0,16.09V21a3,3,0,0,0,3,3H7.91a3,3,0,0,0,3-3V13.09H3A3,3,0,0,0,0,16.09ZM8.91,21a1,1,0,0,1-1,1H3a1,1,0,0,1-1-1V16.09a1,1,0,0,1,1-1H8.91Z"/><path class="cls-1" d="M21,13.09H13.09V21a3,3,0,0,0,3,3H21a3,3,0,0,0,3-3V16.09A3,3,0,0,0,21,13.09ZM22,21a1,1,0,0,1-1,1H16.09a1,1,0,0,1-1-1V15.09H21a1,1,0,0,1,1,1Z"/></g></g></svg>