<svg xmlns="http://www.w3.org/2000/svg" viewBox="0 0 26.17 22.36"><defs><style>.cls-1{fill:#333;}</style></defs><title>资源 9</title><g id="图层_2" data-name="图层 2"><g id="图层_1-2" data-name="图层 1"><path class="cls-1" d="M25,0H21.4a1,1,0,0,0,0,2H23l-7,7L10,2.9a2,2,0,0,0-2.83,0L.29,9.77a1,1,0,1,0,1.41,1.41L8.58,4.31l6.06,6.06a2,2,0,0,0,2.83,0l6.7-6.7V5a1,1,0,0,0,2,0V1.15A1.15,1.15,0,0,0,25,0Z"/><path class="cls-1" d="M24.93,8.56A2,2,0,0,0,22.75,9l-6.7,6.7L10,9.63a2,2,0,0,0-2.83,0L.59,16.2A2,2,0,0,0,0,17.62v2.75a2,2,0,0,0,2,2H24.17a2,2,0,0,0,2-2v-10A2,2,0,0,0,24.93,8.56Zm-.77,11.8H2V17.62L8.58,11l6.06,6.06a2,2,0,0,0,2.83,0l6.7-6.7Z"/></g></g></svg>