<svg xmlns="http://www.w3.org/2000/svg" viewBox="0 0 30 27.48"><defs><style>.cls-1{fill:#fff;}</style></defs><title>资源 12hover</title><g id="图层_2" data-name="图层 2"><g id="图层_1-2" data-name="图层 1"><path class="cls-1" d="M5.67,13.65a1,1,0,0,0-1,1V25.48a2,2,0,0,0,2,2h5a2,2,0,0,0,2-2V19.31h2.67v6.17a2,2,0,0,0,2,2h5a2,2,0,0,0,2-2V14.65a1,1,0,0,0-2,0V25.48h-5V19.31a2,2,0,0,0-2-2H13.67a2,2,0,0,0-2,2v6.17h-5V14.65A1,1,0,0,0,5.67,13.65Z"/><path class="cls-1" d="M16.35.53a2,2,0,0,0-2.7,0L.32,12.74a1,1,0,0,0,1.35,1.47L15,2,28.32,14.22a1,1,0,0,0,1.35-1.47Z"/></g></g></svg>