<svg xmlns="http://www.w3.org/2000/svg" viewBox="0 0 21.19 25.55"><defs><style>.cls-1{fill:#fff;}</style></defs><title>资源 27</title><g id="图层_2" data-name="图层 2"><g id="图层_1-2" data-name="图层 1"><path class="cls-1" d="M6,13a1,1,0,0,1-.69-.28A7.4,7.4,0,1,1,17.81,7.4a7.36,7.36,0,0,1-2.12,5.19,1,1,0,1,1-1.43-1.4,5.4,5.4,0,1,0-7.58.12A1,1,0,0,1,6,13Z"/><path class="cls-1" d="M10.44,11a3.89,3.89,0,0,1-3-1.31A1,1,0,0,1,9,8.4a2.17,2.17,0,0,0,2.85,0,1,1,0,1,1,1.49,1.33A3.87,3.87,0,0,1,10.44,11Z"/><path class="cls-1" d="M20.19,25.55H1a1,1,0,0,1-1-1v-.87c0-5.69,4.56-10,10.6-10s10.6,4.29,10.6,10v.87A1,1,0,0,1,20.19,25.55ZM2,23.55H19.19c-.07-4.48-3.74-7.84-8.59-7.84S2.07,19.07,2,23.55Z"/></g></g></svg>