<svg xmlns="http://www.w3.org/2000/svg" viewBox="0 0 16 16"><title>资源 30</title><g id="图层_2" data-name="图层 2"><g id="图层_1-2" data-name="图层 1"><path d="M8,4.94a3.06,3.06,0,0,1,0,6.11A3.06,3.06,0,0,1,8,4.94m0-1A4,4,0,0,0,4,8a4,4,0,0,0,4,4.06A4,4,0,0,0,12,8,4,4,0,0,0,8,3.94Z"/><path d="M10.5,1.26l1.85,1-.45.84-.33.61.46.52a5.6,5.6,0,0,1,.61.84,5.66,5.66,0,0,1,.48,1l.24.69h.73l.86,0L15,9l-.91,0h-.72l-.22.68a5.55,5.55,0,0,1-1,1.9l-.46.54.36.61.46.79L10.65,14.7l-.47-.79-.37-.62-.7.15a5.27,5.27,0,0,1-1.1.12,5.33,5.33,0,0,1-1-.1l-.72-.14L5.92,14l-.42.78-1.85-1,.45-.84.33-.61L4,11.71a5.6,5.6,0,0,1-.61-.84,5.66,5.66,0,0,1-.48-1l-.24-.69H1.92l-.86,0L1,7l.91,0h.72l.22-.68a5.55,5.55,0,0,1,1-1.9l.46-.54L4,3.21l-.46-.79L5.35,1.3l.47.79.37.62.7-.15A5.27,5.27,0,0,1,8,2.45a5.33,5.33,0,0,1,1,.1l.72.14L10.08,2l.42-.78M10.22,0A.29.29,0,0,0,10,.15L9.2,1.57a6.28,6.28,0,0,0-2.52,0L5.85.17A.29.29,0,0,0,5.6,0a.29.29,0,0,0-.15,0l-3,1.86a.3.3,0,0,0-.1.41l.81,1.38A6.58,6.58,0,0,0,1.9,6L.29,6a.3.3,0,0,0-.29.3l.06,3.6a.3.3,0,0,0,.29.29h0l1.57,0a6.64,6.64,0,0,0,.56,1.22,6.57,6.57,0,0,0,.72,1l-.78,1.44a.3.3,0,0,0,.11.41L5.64,16a.29.29,0,0,0,.14,0A.29.29,0,0,0,6,15.85l.77-1.41a6.28,6.28,0,0,0,2.52,0l.83,1.41a.29.29,0,0,0,.25.14.29.29,0,0,0,.15,0l3-1.86a.3.3,0,0,0,.1-.41l-.81-1.38A6.58,6.58,0,0,0,14.1,10l1.61,0a.3.3,0,0,0,.29-.3l-.06-3.6a.3.3,0,0,0-.29-.29h0l-1.57,0a6.64,6.64,0,0,0-.56-1.22,6.57,6.57,0,0,0-.72-1l.78-1.44a.3.3,0,0,0-.11-.41L10.36,0a.29.29,0,0,0-.14,0Z"/></g></g></svg>