<svg xmlns="http://www.w3.org/2000/svg" viewBox="0 0 29.91 22.54"><defs><style>.cls-1{fill:#fff;}</style></defs><title>资源 14hover</title><g id="图层_2" data-name="图层 2"><g id="图层_1-2" data-name="图层 1"><path class="cls-1" d="M6.84,22.54a4,4,0,0,0,2.83-1.17L13.07,18,13,17.93l-1.35-1.35L8.25,20a2,2,0,0,1-2.83,0L2.59,17.11a2,2,0,0,1,0-2.83l7.72-7.72a2,2,0,0,1,2.83,0L16,9.4a2,2,0,0,1,0,2.83l-1,1,1.35,1.35.07.05,1-1a4,4,0,0,0,0-5.66L14.55,5.15a4,4,0,0,0-5.66,0L1.17,12.87a4,4,0,0,0,0,5.66L4,21.36A4,4,0,0,0,6.84,22.54Z"/><path class="cls-1" d="M25.9,1.17a4,4,0,0,0-5.66,0L16.42,5l.07.06L17.84,6.4l3.81-3.81a2,2,0,0,1,2.83,0l2.84,2.84a2,2,0,0,1,0,2.83l-8.25,8.25a2,2,0,0,1-2.83,0L13.4,13.67a2,2,0,0,1,0-2.83l1-1L13.06,8.52l-.08,0-1,1a4,4,0,0,0,0,5.66l2.84,2.84a4,4,0,0,0,5.66,0l8.25-8.25a4,4,0,0,0,0-5.66Z"/></g></g></svg>