<?xml version="1.0" encoding="utf-8"?>
<!-- Generator: Adobe Illustrator 21.0.0, SVG Export Plug-In . SVG Version: 6.00 Build 0)  -->
<svg version="1.1" id="图层_1" xmlns="http://www.w3.org/2000/svg" xmlns:xlink="http://www.w3.org/1999/xlink" x="0px" y="0px"
	 viewBox="0 0 12.3 11.8" style="enable-background:new 0 0 12.3 11.8;" xml:space="preserve">
<style type="text/css">
	.st0{fill:none;stroke:#FFFFFF;stroke-linecap:round;stroke-linejoin:round;}
</style>
<title>资源 22</title>
<g id="图层_2">
	<g id="图层_1-2">
		<path class="st0" d="M1.5,2.3H9c0.6,0,1,0.4,1,1v7c0,0.6-0.4,1-1,1H1.5c-0.6,0-1-0.4-1-1v-7C0.5,2.8,0.9,2.3,1.5,2.3z"/>
		<path class="st0" d="M2.3,2.2V1.4c0-0.5,0.4-0.9,0.9-0.9c0,0,0,0,0,0h7.7c0.5,0,0.9,0.4,0.9,0.9v7.2c0,0.5-0.4,0.9-0.9,0.9h-0.8"
			/>
	</g>
</g>
</svg>
