<svg xmlns="http://www.w3.org/2000/svg" viewBox="0 0 30.85 25.52"><defs><style>.cls-1{fill:#fff;}</style></defs><title>资源 13hover</title><g id="图层_2" data-name="图层 2"><g id="图层_1-2" data-name="图层 1"><path class="cls-1" d="M2.37,15.22l.33-.35a1.13,1.13,0,0,0,.13-.16l.1-.19A2.66,2.66,0,0,1,5.09,13c1.13-.15,2.59,0,3.13,1.48a1.3,1.3,0,0,0,.7.73,2.38,2.38,0,0,1,1.38,1.43,1.31,1.31,0,0,0,.68.71,2.44,2.44,0,0,1,1.44,1.55,1.28,1.28,0,0,0,.69.74,2.45,2.45,0,0,1,1.57,2.61,1.11,1.11,0,0,0,.27.87,9,9,0,0,0,.79.81,2.12,2.12,0,0,0,1.39.52h.23a2.15,2.15,0,0,0,1.49-.86,2.12,2.12,0,0,0,.4-1,2.13,2.13,0,0,0,2.87-1.88,2.07,2.07,0,0,0,1.53-.12A2.1,2.1,0,0,0,24.81,19a2.18,2.18,0,0,0,0-.61l.31,0a2.09,2.09,0,0,0,1.49-.64,2.18,2.18,0,0,0-.08-3.1c-1-1-1.78-1.75-2.58-2.53s-1.64-1.59-2.64-2.59A2.74,2.74,0,0,0,18,9L17,9.41c-.69.32-1.38.64-2.08.94a6.89,6.89,0,0,1-1.12.35,3.4,3.4,0,0,1-3.53-2.18,3.19,3.19,0,0,1,.92-3.6c.72-.47,1.47-.9,2.21-1.34.44-.26.88-.5,1.34-.75L16.29,2l-1-.82A3.4,3.4,0,0,0,15,.86,4.75,4.75,0,0,0,10.48.33,22.91,22.91,0,0,0,5.93,2.65,1.94,1.94,0,0,1,4.33,3C3,2.59,1,2.14.92,2.12L0,1.91V14.44l.5.18.73.24.66.22Zm-.69-1.79-.18-.06V3.8c.7.17,1.67.41,2.42.62h0a3.42,3.42,0,0,0,2.81-.5A21.46,21.46,0,0,1,11,1.74a3.29,3.29,0,0,1,2.57,0l-.89.51c-.77.45-1.53.89-2.27,1.38A4.64,4.64,0,0,0,8.89,9a4.88,4.88,0,0,0,5.28,3.12,8.25,8.25,0,0,0,1.37-.43c.71-.31,1.41-.63,2.11-1l.94-.43a1.28,1.28,0,0,1,1.68.31c1,1,1.82,1.8,2.65,2.6s1.6,1.56,2.57,2.52a.68.68,0,0,1,.07,1,.59.59,0,0,1-.42.19.85.85,0,0,1-.57-.26l-.19-.19c-.57-.57-1.15-1.14-1.76-1.73a1.1,1.1,0,0,0-.77-.44.94.94,0,0,0-.73.28c-.56.53,0,1.34.15,1.53.53.59,1.09,1.16,1.64,1.73l.2.21a.81.81,0,0,1,.25.7.6.6,0,0,1-.35.44.75.75,0,0,1-.85-.23Q21,17.82,19.77,16.67a1.93,1.93,0,0,0-.39-.28l-1.06-.69-.21,1.09a1.44,1.44,0,0,0,.46,1.34c.54.59,1.09,1.16,1.65,1.74l.15.15a.69.69,0,0,1,.25.49.62.62,0,0,1-.38.63.64.64,0,0,1-.74-.18l-2-2.07a2.72,2.72,0,0,0-.49-.41,1.09,1.09,0,0,0-.57-.15h-.79l-.06.79a1.07,1.07,0,0,0,.09.58,2,2,0,0,0,.38.5l.6.63c.33.34.66.68,1,1a.64.64,0,0,1-.4,1.06.61.61,0,0,1-.47-.15,6.36,6.36,0,0,1-.54-.55,3.92,3.92,0,0,0-2.39-3.94A3.93,3.93,0,0,0,11.66,16a3.88,3.88,0,0,0-2.07-2.15c-.7-1.79-2.4-2.66-4.69-2.35a4.21,4.21,0,0,0-3.11,2Z"/><path class="cls-1" d="M29.6,3.84c-.32.08-.9.22-1.85.42A1.22,1.22,0,0,1,26.6,4l-2-1.71-1.23-1A3.07,3.07,0,0,0,19.42.92L15.66,3.06,12.28,5A2.57,2.57,0,0,0,14.7,9.52l.59-.31.52-.27,1.12-.58c.65-.34,1.24-.65,2-1a1.11,1.11,0,0,1,1.39.28l3.17,3.13L26.81,14a3.15,3.15,0,0,0,2.25,1V15l.73-.12.13,0,.29-.05.62-.11v-11L30,3.75Zm-.25,9.6h-.07a1.55,1.55,0,0,1-1.4-.51l-3.3-3.26L21.41,6.55a2.68,2.68,0,0,0-1.9-.85A2.78,2.78,0,0,0,18.33,6c-.83.38-1.43.7-2.1,1.06l-1.1.57-.53.28-.57.3a1.07,1.07,0,0,1-1-1.88L16.4,4.36l3.82-2.18a1.6,1.6,0,0,1,2.17.19l1.23,1,2,1.7a2.74,2.74,0,0,0,2.44.61l1.27-.29Z"/><path class="cls-1" d="M10.26,25.35a2.62,2.62,0,0,0,1,.17,3.46,3.46,0,0,0,1.55-.39,3.12,3.12,0,0,0,1.66-1.9A2.52,2.52,0,0,0,14,21.05a2.4,2.4,0,0,0-1.72-.94,2.35,2.35,0,0,0-.57-1.49,2.25,2.25,0,0,0-1.54-.8,2.23,2.23,0,0,0-.66-1.49,2.33,2.33,0,0,0-1.41-.66,2.37,2.37,0,0,0-.68-1.49,2.41,2.41,0,0,0-2.09-.69,3.41,3.41,0,0,0-2.7,2.65,2.35,2.35,0,0,0,.65,2.27,2,2,0,0,0,1.4.5,2,2,0,0,0,.48,1.49A2,2,0,0,0,6.82,21a1.9,1.9,0,0,0,.71,1.69A2,2,0,0,0,9,23.19,2,2,0,0,0,10.26,25.35Zm1.53-3.72.32,0a.91.91,0,0,1,.72.35,1,1,0,0,1,.14.89,1.68,1.68,0,0,1-.89,1,1.67,1.67,0,0,1-1.28.16.49.49,0,0,1-.33-.67c.05-.17.12-.34.2-.52l.43-1.07Zm-6.73-4.3a.74.74,0,0,1-.73,0,.87.87,0,0,1-.19-.81A1.94,1.94,0,0,1,5.6,15h.15a.91.91,0,0,1,.66.27.9.9,0,0,1,.24.8L6.5,17l-1,.25A3.68,3.68,0,0,0,5.07,17.33ZM7.42,19.4l-.56.14a.48.48,0,0,1-.59-.66l.16-.45.41-1.16.6-.08c.65-.09.89.05,1.06.21s.29.43.18,1.06l-.11.65Zm1.09,2.2a.42.42,0,0,1-.17-.52l.57-1.71.59-.06c.69-.06.93,0,1.12.27a1.06,1.06,0,0,1,.13,1.11l-.17.57-1,.26a5.13,5.13,0,0,1-.5.13C8.7,21.73,8.59,21.67,8.51,21.6Z"/></g></g></svg>