<svg xmlns="http://www.w3.org/2000/svg" viewBox="0 0 29.59 24.64"><defs><style>.cls-1{fill:#333;}</style></defs><title>资源 8</title><g id="图层_2" data-name="图层 2"><g id="图层_1-2" data-name="图层 1"><path class="cls-1" d="M3.73,4.45.59,7.59A2,2,0,0,0,2,11h8.59a1,1,0,1,0,0-2H2L5.14,5.86A1,1,0,0,0,3.73,4.45Z"/><path class="cls-1" d="M25.59,18H1a1,1,0,0,0,0,2H25.59l-2.94,2.94a1,1,0,1,0,1.41,1.41L27,21.42A2,2,0,0,0,25.59,18Z"/><path class="cls-1" d="M21.59,0a8,8,0,1,0,8,8A8,8,0,0,0,21.59,0Zm0,14a6,6,0,1,1,6-6A6,6,0,0,1,21.59,14Z"/><path class="cls-1" d="M22.3,7.47V4.28a1,1,0,0,0-2,0V8.47a1,1,0,0,0,1,1h4a1,1,0,0,0,0-2Z"/></g></g></svg>