<svg xmlns="http://www.w3.org/2000/svg" viewBox="0 0 26.2 25.33"><defs><style>.cls-1{fill:#fff;}</style></defs><title>资源 15hover</title><g id="图层_2" data-name="图层 2"><g id="图层_1-2" data-name="图层 1"><path class="cls-1" d="M26.15,10.49a1.91,1.91,0,0,0-1.21-1.76L22,7.56l-.07-.13,0,0,.52-3a1.92,1.92,0,0,0-1-2L17.73.28A1.92,1.92,0,0,0,15.6.45l-2.47,2h-.19l-2.36-2A1.92,1.92,0,0,0,8.38.27L4.69,2.46a1.92,1.92,0,0,0-.92,1.93l.46,3.12-.09.16L1.26,8.73A1.93,1.93,0,0,0,0,10.56l.05,4.29a1.92,1.92,0,0,0,1.21,1.76l2.93,1.16.07.13,0,0-.52,3a1.92,1.92,0,0,0,1,2l3.74,2.1a1.92,1.92,0,0,0,2.14-.17l2.47-2h.19l2.36,2a1.92,1.92,0,0,0,2.21.18l3.69-2.19a1.91,1.91,0,0,0,.92-1.93L22,17.82l.09-.16,2.88-1.06a1.93,1.93,0,0,0,1.26-1.83ZM21,15.91a1,1,0,0,0-.55.49q-.17.35-.38.67a1,1,0,0,0-.14.68l.55,3.4-3.6,2.2-2.65-2.21a1,1,0,0,0-.64-.23h-.05c-.26,0-.52,0-.78,0a1,1,0,0,0-.66.22L9.44,23.31l-3.7-2,.59-3.41a1,1,0,0,0-.15-.72L6.09,17,6,16.88l-.11-.21-.08-.16A1,1,0,0,0,5.28,16L2.05,14.82l-.1-4.21L5.19,9.42a1,1,0,0,0,.55-.49q.17-.35.38-.68a1,1,0,0,0,.14-.68l-.55-3.4L9.31,2,12,4.19a1,1,0,0,0,.69.23q.39,0,.78,0a1,1,0,0,0,.66-.22L16.75,2l3.7,2-.59,3.41a1,1,0,0,0,.15.71l.1.15.1.15h0l.11.21.08.15a1,1,0,0,0,.52.47l3.23,1.22.1,4.21Z"/><path class="cls-1" d="M13.1,7.35a5.31,5.31,0,1,0,5.31,5.31A5.32,5.32,0,0,0,13.1,7.35Zm0,8.63a3.31,3.31,0,1,1,3.31-3.31A3.32,3.32,0,0,1,13.1,16Z"/></g></g></svg>